<?xml version="1.0" standalone="no"?><!DOCTYPE svg PUBLIC "-//W3C//DTD SVG 1.1//EN" "http://www.w3.org/Graphics/SVG/1.1/DTD/svg11.dtd"><svg t="1624344370447" class="icon" viewBox="0 0 1024 1024" version="1.1" xmlns="http://www.w3.org/2000/svg" p-id="2562" xmlns:xlink="http://www.w3.org/1999/xlink" width="48" height="48"><defs><style type="text/css"></style></defs><path d="M86.229333 284.16V167.125333c0-47.786667 29.482667-80.810667 75.434667-81.28 79.274667-0.853333 158.592-0.426667 237.909333 0 15.146667 0 21.674667 6.698667 21.205334 19.626667-0.853333 14.336-9.514667 17.450667-21.632 17.450667H171.605333c-36.394667 0-49.408 13.824-49.408 50.901333V408.32c-0.426667 16.512-6.912 25.002667-18.602666 24.576-11.733333 0-17.365333-8.064-17.365334-25.045333-0.426667-41.514667 0-82.602667 0-123.733334z" p-id="2563"></path><path d="M746.666667 85.418667h110.933333c50.304 0.426667 81.066667 32.128 81.066667 83.968v226.858666c0 7.168 0.426667 14.762667-5.632 20.096a17.621333 17.621333 0 0 1-19.498667 3.584c-8.234667-3.584-11.264-10.709333-10.837333-20.096V170.24c0-31.232-15.189333-47.36-45.952-47.36h-228.821334c-12.544 0-20.778667-5.76-20.352-18.730667 0.426667-12.032 8.661333-17.877333 19.925334-17.877333 39.466667-0.853333 79.317333-0.853333 119.168-0.853333z" p-id="2564"></path><path d="M279.936 938.453333c-36.821333 0-73.642667-0.426667-110.933333 0-56.32 0.896-84.906667-41.984-83.626667-86.186666 2.133333-74.581333 0.426667-149.162667 0.426667-223.744 0-8.96 1.706667-16.085333 9.984-20.565334 6.485333-3.584 12.544-2.218667 18.176 1.792 7.381333 5.376 7.808 13.866667 7.808 22.314667v220.629333c0 33.536 14.72 49.152 47.232 49.152h228.821333c16.042667 0 22.101333 5.376 22.101333 17.877334s-7.381333 18.773333-23.850666 18.773333c-38.101333 0.426667-77.098667 0-116.138667 0z" p-id="2565"></path><path d="M742.784 901.418667h110.933333c34.688 0 48.981333-15.189333 48.981334-50.944V636.16c0-20.138667 4.778667-27.733333 17.749333-28.16 13.44-0.426667 18.218667 7.594667 18.218667 28.586667v217.514666c0 50.005333-29.44 83.072-77.994667 83.968-76.714667 0.853333-153.856 0.426667-230.570667 0-15.146667 0-24.277333-8.490667-22.954666-20.096 1.706667-14.293333 11.264-17.408 23.850666-16.981333 36.821333 0.896 74.069333 0.426667 111.786667 0.426667z m-313.301333-383.232c0-56.746667 26.453333-94.72 73.216-105.386667 43.349333-9.813333 85.802667 9.813333 100.096 46.890667 2.176 5.802667 10.837333 13.824 1.28 19.626666-9.941333 6.272-25.984 0.896-29.866667-8.917333-8.661333-23.68-27.306667-30.378667-48.554667-30.805333-29.866667-0.896-53.76 18.773333-61.525333 50.005333a118.485333 118.485333 0 0 0 2.602667 68.352c8.234667 24.533333 26.026667 37.504 52.010666 38.826667 29.44 1.365333 46.378667-8.448 57.6-33.92 5.674667-12.074667 16.938667-16.512 29.482667-12.501334 7.808 2.688 4.352 7.594667 3.072 12.501334-11.733333 40.192-48.128 65.664-88.874667 62.976-59.349333-4.906667-90.581333-41.557333-90.581333-107.648z m-142.165334-104.96c-37.717333 6.698667-60.672 33.066667-69.333333 70.570666-9.514667 42.88-6.954667 84.864 27.306667 116.565334 32.042667 29.952 71.082667 31.701333 109.226666 15.189333 40.704-17.408 51.968-54.912 53.717334-87.082667 0.426667-83.968-47.232-128.170667-120.917334-115.2z m87.125334 128.170666c-7.808 38.4-31.232 56.746667-69.333334 54.954667-31.232-1.365333-54.186667-25.002667-58.538666-60.757333-0.853333-6.229333-0.853333-12.501333-0.853334-16.981334 0.426667-9.813333 0.426667-17.834667 2.602667-25.898666 8.234667-34.389333 29.44-52.693333 61.952-53.12 32.512-0.426667 52.906667 16.085333 62.848 50.005333 4.778667 16.981333 4.778667 34.389333 1.28 51.797333z m417.706666 21.888c-1.706667-18.773333-8.192-33.493333-27.264-42.410666 26.453333-15.189333 35.114667-33.962667 29.866667-61.653334-4.266667-23.637333-22.485333-38.826667-48.512-42.410666-29.013333-4.010667-57.6-0.896-86.656-2.261334-13.866667-0.853333-19.072 3.157333-18.645333 18.346667 0.853333 55.808 0.426667 112.085333 0.426666 167.936 0 3.541333-0.426667 7.125333 0.426667 10.666667 2.176 13.44 12.586667 8.533333 20.394667 9.386666 8.234667 0.938667 10.410667-3.541333 9.941333-11.136-0.426667-15.189333-0.426667-30.805333-0.426667-46.464 0-26.325333 0-26.325333 26.026667-26.325333h7.338667c48.554667-2.688 54.613333 5.802667 58.069333 49.109333 2.602667 35.754667 3.498667 35.754667 38.570667 34.858667 0.853333 0 1.706667-0.896 3.498666-1.792-12.16-16.512-11.264-36.650667-13.013333-55.850667z m-51.541333-56.746666c-11.264 1.834667-22.528 1.834667-34.218667 2.261333-34.688-0.426667-34.688-0.426667-34.688-36.608 0-29.909333 0-29.909333 29.013334-29.909333 13.013333 0 26.026667 0.426667 38.613333 2.218666 16.896 2.218667 25.130667 12.501333 25.130667 29.909334 0.426667 17.408-8.234667 29.909333-23.850667 32.170666z" p-id="2566"></path></svg>